<mxfile host="app.diagrams.net" agent="Mozilla/5.0 (Windows NT 10.0; Win64; x64) AppleWebKit/537.36 (KHTML, like Gecko) Chrome/131.0.0.0 Safari/537.36" version="25.0.3">
  <diagram name="Page-1" id="bqw8UpURN-ObOtetqlP9">
    <mxGraphModel dx="2200" dy="1180" grid="1" gridSize="10" guides="1" tooltips="1" connect="1" arrows="1" fold="1" page="1" pageScale="1" pageWidth="827" pageHeight="1169" math="0" shadow="0">
      <root>
        <mxCell id="0" />
        <mxCell id="1" parent="0" />
        <mxCell id="cMHefLGlaLbFDmGDl4aF-8" style="edgeStyle=orthogonalEdgeStyle;rounded=0;orthogonalLoop=1;jettySize=auto;html=1;entryX=0.5;entryY=1;entryDx=0;entryDy=0;" edge="1" parent="1" source="cMHefLGlaLbFDmGDl4aF-1" target="cMHefLGlaLbFDmGDl4aF-2">
          <mxGeometry relative="1" as="geometry" />
        </mxCell>
        <mxCell id="cMHefLGlaLbFDmGDl4aF-9" style="edgeStyle=orthogonalEdgeStyle;rounded=0;orthogonalLoop=1;jettySize=auto;html=1;exitX=0;exitY=0;exitDx=0;exitDy=0;entryX=1;entryY=1;entryDx=0;entryDy=0;" edge="1" parent="1" source="cMHefLGlaLbFDmGDl4aF-1" target="cMHefLGlaLbFDmGDl4aF-5">
          <mxGeometry relative="1" as="geometry" />
        </mxCell>
        <mxCell id="cMHefLGlaLbFDmGDl4aF-11" style="edgeStyle=orthogonalEdgeStyle;rounded=0;orthogonalLoop=1;jettySize=auto;html=1;exitX=0.5;exitY=1;exitDx=0;exitDy=0;entryX=0.5;entryY=0;entryDx=0;entryDy=0;" edge="1" parent="1" source="cMHefLGlaLbFDmGDl4aF-1" target="cMHefLGlaLbFDmGDl4aF-7">
          <mxGeometry relative="1" as="geometry" />
        </mxCell>
        <mxCell id="cMHefLGlaLbFDmGDl4aF-12" style="edgeStyle=orthogonalEdgeStyle;rounded=0;orthogonalLoop=1;jettySize=auto;html=1;exitX=1;exitY=0;exitDx=0;exitDy=0;" edge="1" parent="1" source="cMHefLGlaLbFDmGDl4aF-1" target="cMHefLGlaLbFDmGDl4aF-4">
          <mxGeometry relative="1" as="geometry">
            <Array as="points">
              <mxPoint x="310" y="130" />
              <mxPoint x="310" y="110" />
              <mxPoint x="350" y="110" />
              <mxPoint x="350" y="120" />
              <mxPoint x="385" y="120" />
            </Array>
          </mxGeometry>
        </mxCell>
        <mxCell id="cMHefLGlaLbFDmGDl4aF-16" style="edgeStyle=orthogonalEdgeStyle;rounded=0;orthogonalLoop=1;jettySize=auto;html=1;exitX=1;exitY=0.5;exitDx=0;exitDy=0;entryX=0;entryY=0.5;entryDx=0;entryDy=0;" edge="1" parent="1" source="cMHefLGlaLbFDmGDl4aF-1" target="cMHefLGlaLbFDmGDl4aF-15">
          <mxGeometry relative="1" as="geometry" />
        </mxCell>
        <mxCell id="cMHefLGlaLbFDmGDl4aF-64" style="edgeStyle=orthogonalEdgeStyle;rounded=0;orthogonalLoop=1;jettySize=auto;html=1;exitX=0;exitY=0.75;exitDx=0;exitDy=0;entryX=0;entryY=0.5;entryDx=0;entryDy=0;" edge="1" parent="1" source="cMHefLGlaLbFDmGDl4aF-1" target="cMHefLGlaLbFDmGDl4aF-61">
          <mxGeometry relative="1" as="geometry">
            <Array as="points">
              <mxPoint x="160" y="175" />
              <mxPoint x="160" y="400" />
              <mxPoint x="400" y="400" />
            </Array>
          </mxGeometry>
        </mxCell>
        <mxCell id="cMHefLGlaLbFDmGDl4aF-1" value="Customer" style="rounded=0;whiteSpace=wrap;html=1;" vertex="1" parent="1">
          <mxGeometry x="210" y="130" width="120" height="60" as="geometry" />
        </mxCell>
        <mxCell id="cMHefLGlaLbFDmGDl4aF-3" value="" style="endArrow=none;html=1;rounded=0;" edge="1" parent="1" source="cMHefLGlaLbFDmGDl4aF-2">
          <mxGeometry width="50" height="50" relative="1" as="geometry">
            <mxPoint x="230" y="50" as="sourcePoint" />
            <mxPoint x="310" y="50" as="targetPoint" />
            <Array as="points" />
          </mxGeometry>
        </mxCell>
        <mxCell id="cMHefLGlaLbFDmGDl4aF-4" value="Name" style="ellipse;whiteSpace=wrap;html=1;" vertex="1" parent="1">
          <mxGeometry x="330" y="60" width="110" height="40" as="geometry" />
        </mxCell>
        <mxCell id="cMHefLGlaLbFDmGDl4aF-5" value="Contact" style="ellipse;whiteSpace=wrap;html=1;" vertex="1" parent="1">
          <mxGeometry x="20" y="60" width="145" height="50" as="geometry" />
        </mxCell>
        <mxCell id="cMHefLGlaLbFDmGDl4aF-6" value="Address" style="ellipse;whiteSpace=wrap;html=1;" vertex="1" parent="1">
          <mxGeometry x="20" y="140" width="130" height="30" as="geometry" />
        </mxCell>
        <mxCell id="cMHefLGlaLbFDmGDl4aF-7" value="RegDate" style="ellipse;whiteSpace=wrap;html=1;" vertex="1" parent="1">
          <mxGeometry x="210" y="230" width="120" height="40" as="geometry" />
        </mxCell>
        <mxCell id="cMHefLGlaLbFDmGDl4aF-10" style="edgeStyle=orthogonalEdgeStyle;rounded=0;orthogonalLoop=1;jettySize=auto;html=1;exitX=0;exitY=0.5;exitDx=0;exitDy=0;entryX=0.977;entryY=0.767;entryDx=0;entryDy=0;entryPerimeter=0;" edge="1" parent="1" source="cMHefLGlaLbFDmGDl4aF-1" target="cMHefLGlaLbFDmGDl4aF-6">
          <mxGeometry relative="1" as="geometry" />
        </mxCell>
        <mxCell id="cMHefLGlaLbFDmGDl4aF-13" value="" style="endArrow=none;html=1;rounded=0;" edge="1" parent="1" target="cMHefLGlaLbFDmGDl4aF-2">
          <mxGeometry width="50" height="50" relative="1" as="geometry">
            <mxPoint x="230" y="50" as="sourcePoint" />
            <mxPoint x="310" y="50" as="targetPoint" />
            <Array as="points" />
          </mxGeometry>
        </mxCell>
        <mxCell id="cMHefLGlaLbFDmGDl4aF-2" value="Customer ID" style="ellipse;whiteSpace=wrap;html=1;" vertex="1" parent="1">
          <mxGeometry x="225" y="40" width="90" height="30" as="geometry" />
        </mxCell>
        <mxCell id="cMHefLGlaLbFDmGDl4aF-17" style="edgeStyle=orthogonalEdgeStyle;rounded=0;orthogonalLoop=1;jettySize=auto;html=1;exitX=0.5;exitY=0;exitDx=0;exitDy=0;" edge="1" parent="1" source="cMHefLGlaLbFDmGDl4aF-15">
          <mxGeometry relative="1" as="geometry">
            <mxPoint x="510" y="100" as="targetPoint" />
          </mxGeometry>
        </mxCell>
        <mxCell id="cMHefLGlaLbFDmGDl4aF-22" style="edgeStyle=orthogonalEdgeStyle;rounded=0;orthogonalLoop=1;jettySize=auto;html=1;exitX=1;exitY=0;exitDx=0;exitDy=0;" edge="1" parent="1" source="cMHefLGlaLbFDmGDl4aF-15" target="cMHefLGlaLbFDmGDl4aF-19">
          <mxGeometry relative="1" as="geometry" />
        </mxCell>
        <mxCell id="cMHefLGlaLbFDmGDl4aF-24" style="edgeStyle=orthogonalEdgeStyle;rounded=0;orthogonalLoop=1;jettySize=auto;html=1;exitX=0;exitY=1;exitDx=0;exitDy=0;entryX=1;entryY=0.5;entryDx=0;entryDy=0;" edge="1" parent="1" source="cMHefLGlaLbFDmGDl4aF-15" target="cMHefLGlaLbFDmGDl4aF-23">
          <mxGeometry relative="1" as="geometry" />
        </mxCell>
        <mxCell id="cMHefLGlaLbFDmGDl4aF-26" style="edgeStyle=orthogonalEdgeStyle;rounded=0;orthogonalLoop=1;jettySize=auto;html=1;exitX=0.5;exitY=1;exitDx=0;exitDy=0;entryX=0.5;entryY=0;entryDx=0;entryDy=0;" edge="1" parent="1" source="cMHefLGlaLbFDmGDl4aF-15" target="cMHefLGlaLbFDmGDl4aF-25">
          <mxGeometry relative="1" as="geometry" />
        </mxCell>
        <mxCell id="cMHefLGlaLbFDmGDl4aF-28" style="edgeStyle=orthogonalEdgeStyle;rounded=0;orthogonalLoop=1;jettySize=auto;html=1;exitX=0.5;exitY=1;exitDx=0;exitDy=0;entryX=0.5;entryY=0;entryDx=0;entryDy=0;" edge="1" parent="1" source="cMHefLGlaLbFDmGDl4aF-15" target="cMHefLGlaLbFDmGDl4aF-27">
          <mxGeometry relative="1" as="geometry" />
        </mxCell>
        <mxCell id="cMHefLGlaLbFDmGDl4aF-33" style="edgeStyle=orthogonalEdgeStyle;rounded=0;orthogonalLoop=1;jettySize=auto;html=1;exitX=1;exitY=1;exitDx=0;exitDy=0;entryX=0.5;entryY=0;entryDx=0;entryDy=0;" edge="1" parent="1" source="cMHefLGlaLbFDmGDl4aF-15" target="cMHefLGlaLbFDmGDl4aF-29">
          <mxGeometry relative="1" as="geometry" />
        </mxCell>
        <mxCell id="cMHefLGlaLbFDmGDl4aF-15" value="Scheme" style="rhombus;whiteSpace=wrap;html=1;" vertex="1" parent="1">
          <mxGeometry x="470" y="150" width="80" height="80" as="geometry" />
        </mxCell>
        <mxCell id="cMHefLGlaLbFDmGDl4aF-18" value="SchemeName" style="ellipse;whiteSpace=wrap;html=1;" vertex="1" parent="1">
          <mxGeometry x="470" y="60" width="110" height="40" as="geometry" />
        </mxCell>
        <mxCell id="cMHefLGlaLbFDmGDl4aF-19" value="SchemeID" style="ellipse;whiteSpace=wrap;html=1;" vertex="1" parent="1">
          <mxGeometry x="600" y="90" width="100" height="40" as="geometry" />
        </mxCell>
        <mxCell id="cMHefLGlaLbFDmGDl4aF-20" value="" style="endArrow=none;html=1;rounded=0;" edge="1" parent="1">
          <mxGeometry width="50" height="50" relative="1" as="geometry">
            <mxPoint x="617.5" y="120" as="sourcePoint" />
            <mxPoint x="682.5" y="120" as="targetPoint" />
            <Array as="points">
              <mxPoint x="662.5" y="120" />
            </Array>
          </mxGeometry>
        </mxCell>
        <mxCell id="cMHefLGlaLbFDmGDl4aF-21" value="" style="endArrow=none;html=1;rounded=0;" edge="1" parent="1">
          <mxGeometry width="50" height="50" relative="1" as="geometry">
            <mxPoint x="235" y="59" as="sourcePoint" />
            <mxPoint x="305" y="59" as="targetPoint" />
          </mxGeometry>
        </mxCell>
        <mxCell id="cMHefLGlaLbFDmGDl4aF-23" value="Description" style="ellipse;whiteSpace=wrap;html=1;" vertex="1" parent="1">
          <mxGeometry x="359" y="220" width="110" height="30" as="geometry" />
        </mxCell>
        <mxCell id="cMHefLGlaLbFDmGDl4aF-25" value="EligibilityCriteria" style="ellipse;whiteSpace=wrap;html=1;" vertex="1" parent="1">
          <mxGeometry x="310" y="300" width="130" height="40" as="geometry" />
        </mxCell>
        <mxCell id="cMHefLGlaLbFDmGDl4aF-27" value="Benefits" style="ellipse;whiteSpace=wrap;html=1;" vertex="1" parent="1">
          <mxGeometry x="450" y="310" width="130" height="40" as="geometry" />
        </mxCell>
        <mxCell id="cMHefLGlaLbFDmGDl4aF-29" value="T&amp;amp;C" style="ellipse;whiteSpace=wrap;html=1;" vertex="1" parent="1">
          <mxGeometry x="530" y="250" width="80" height="30" as="geometry" />
        </mxCell>
        <mxCell id="cMHefLGlaLbFDmGDl4aF-39" style="edgeStyle=orthogonalEdgeStyle;rounded=0;orthogonalLoop=1;jettySize=auto;html=1;exitX=0.75;exitY=0;exitDx=0;exitDy=0;entryX=0.5;entryY=1;entryDx=0;entryDy=0;" edge="1" parent="1" target="cMHefLGlaLbFDmGDl4aF-35">
          <mxGeometry relative="1" as="geometry">
            <mxPoint x="672.5" y="500" as="sourcePoint" />
          </mxGeometry>
        </mxCell>
        <mxCell id="cMHefLGlaLbFDmGDl4aF-40" style="edgeStyle=orthogonalEdgeStyle;rounded=0;orthogonalLoop=1;jettySize=auto;html=1;exitX=1;exitY=0.5;exitDx=0;exitDy=0;entryX=0.5;entryY=0;entryDx=0;entryDy=0;" edge="1" parent="1" target="cMHefLGlaLbFDmGDl4aF-36">
          <mxGeometry relative="1" as="geometry">
            <mxPoint x="690" y="520" as="sourcePoint" />
          </mxGeometry>
        </mxCell>
        <mxCell id="cMHefLGlaLbFDmGDl4aF-35" value="Name" style="ellipse;whiteSpace=wrap;html=1;" vertex="1" parent="1">
          <mxGeometry x="720" y="430" width="70" height="30" as="geometry" />
        </mxCell>
        <mxCell id="cMHefLGlaLbFDmGDl4aF-36" value="AdminID" style="ellipse;whiteSpace=wrap;html=1;" vertex="1" parent="1">
          <mxGeometry x="750" y="560" width="90" height="40" as="geometry" />
        </mxCell>
        <mxCell id="cMHefLGlaLbFDmGDl4aF-38" value="" style="endArrow=none;html=1;rounded=0;" edge="1" parent="1">
          <mxGeometry width="50" height="50" relative="1" as="geometry">
            <mxPoint x="767.5" y="584" as="sourcePoint" />
            <mxPoint x="822.5" y="584" as="targetPoint" />
          </mxGeometry>
        </mxCell>
        <mxCell id="cMHefLGlaLbFDmGDl4aF-41" style="edgeStyle=orthogonalEdgeStyle;rounded=0;orthogonalLoop=1;jettySize=auto;html=1;exitX=1;exitY=0.5;exitDx=0;exitDy=0;entryX=0.386;entryY=0;entryDx=0;entryDy=0;entryPerimeter=0;" edge="1" parent="1" source="cMHefLGlaLbFDmGDl4aF-15">
          <mxGeometry relative="1" as="geometry">
            <mxPoint x="647.02" y="500" as="targetPoint" />
          </mxGeometry>
        </mxCell>
        <mxCell id="cMHefLGlaLbFDmGDl4aF-44" style="edgeStyle=orthogonalEdgeStyle;rounded=0;orthogonalLoop=1;jettySize=auto;html=1;exitX=0;exitY=0;exitDx=0;exitDy=0;entryX=0.5;entryY=1;entryDx=0;entryDy=0;" edge="1" parent="1" source="cMHefLGlaLbFDmGDl4aF-42" target="cMHefLGlaLbFDmGDl4aF-43">
          <mxGeometry relative="1" as="geometry" />
        </mxCell>
        <mxCell id="cMHefLGlaLbFDmGDl4aF-53" style="edgeStyle=orthogonalEdgeStyle;rounded=0;orthogonalLoop=1;jettySize=auto;html=1;exitX=0;exitY=0.25;exitDx=0;exitDy=0;entryX=1;entryY=0.5;entryDx=0;entryDy=0;" edge="1" parent="1" source="cMHefLGlaLbFDmGDl4aF-42" target="cMHefLGlaLbFDmGDl4aF-46">
          <mxGeometry relative="1" as="geometry" />
        </mxCell>
        <mxCell id="cMHefLGlaLbFDmGDl4aF-54" style="edgeStyle=orthogonalEdgeStyle;rounded=0;orthogonalLoop=1;jettySize=auto;html=1;exitX=0;exitY=0.5;exitDx=0;exitDy=0;entryX=1;entryY=0.5;entryDx=0;entryDy=0;" edge="1" parent="1" source="cMHefLGlaLbFDmGDl4aF-42" target="cMHefLGlaLbFDmGDl4aF-48">
          <mxGeometry relative="1" as="geometry" />
        </mxCell>
        <mxCell id="cMHefLGlaLbFDmGDl4aF-56" style="edgeStyle=orthogonalEdgeStyle;rounded=0;orthogonalLoop=1;jettySize=auto;html=1;exitX=0;exitY=1;exitDx=0;exitDy=0;entryX=1;entryY=0.5;entryDx=0;entryDy=0;" edge="1" parent="1" source="cMHefLGlaLbFDmGDl4aF-42" target="cMHefLGlaLbFDmGDl4aF-49">
          <mxGeometry relative="1" as="geometry">
            <Array as="points">
              <mxPoint x="304" y="590" />
              <mxPoint x="165" y="590" />
            </Array>
          </mxGeometry>
        </mxCell>
        <mxCell id="cMHefLGlaLbFDmGDl4aF-59" style="edgeStyle=orthogonalEdgeStyle;rounded=0;orthogonalLoop=1;jettySize=auto;html=1;exitX=0.5;exitY=1;exitDx=0;exitDy=0;entryX=0;entryY=0;entryDx=0;entryDy=0;" edge="1" parent="1" source="cMHefLGlaLbFDmGDl4aF-42" target="cMHefLGlaLbFDmGDl4aF-52">
          <mxGeometry relative="1" as="geometry" />
        </mxCell>
        <mxCell id="cMHefLGlaLbFDmGDl4aF-60" style="edgeStyle=orthogonalEdgeStyle;rounded=0;orthogonalLoop=1;jettySize=auto;html=1;exitX=0;exitY=1;exitDx=0;exitDy=0;entryX=0.5;entryY=0;entryDx=0;entryDy=0;" edge="1" parent="1" source="cMHefLGlaLbFDmGDl4aF-42" target="cMHefLGlaLbFDmGDl4aF-51">
          <mxGeometry relative="1" as="geometry" />
        </mxCell>
        <mxCell id="cMHefLGlaLbFDmGDl4aF-63" style="edgeStyle=orthogonalEdgeStyle;rounded=0;orthogonalLoop=1;jettySize=auto;html=1;exitX=0.5;exitY=0;exitDx=0;exitDy=0;entryX=0.5;entryY=1;entryDx=0;entryDy=0;" edge="1" parent="1" source="cMHefLGlaLbFDmGDl4aF-42" target="cMHefLGlaLbFDmGDl4aF-61">
          <mxGeometry relative="1" as="geometry" />
        </mxCell>
        <mxCell id="cMHefLGlaLbFDmGDl4aF-42" value="Policy" style="rounded=0;whiteSpace=wrap;html=1;" vertex="1" parent="1">
          <mxGeometry x="304" y="520" width="110" height="50" as="geometry" />
        </mxCell>
        <mxCell id="cMHefLGlaLbFDmGDl4aF-43" value="PolicyID" style="ellipse;whiteSpace=wrap;html=1;" vertex="1" parent="1">
          <mxGeometry x="225" y="440" width="90" height="40" as="geometry" />
        </mxCell>
        <mxCell id="cMHefLGlaLbFDmGDl4aF-45" value="" style="endArrow=none;html=1;rounded=0;" edge="1" parent="1">
          <mxGeometry width="50" height="50" relative="1" as="geometry">
            <mxPoint x="245" y="470" as="sourcePoint" />
            <mxPoint x="295" y="470" as="targetPoint" />
          </mxGeometry>
        </mxCell>
        <mxCell id="cMHefLGlaLbFDmGDl4aF-46" value="StartDate" style="ellipse;whiteSpace=wrap;html=1;" vertex="1" parent="1">
          <mxGeometry x="120" y="490" width="90" height="30" as="geometry" />
        </mxCell>
        <mxCell id="cMHefLGlaLbFDmGDl4aF-47" style="edgeStyle=orthogonalEdgeStyle;rounded=0;orthogonalLoop=1;jettySize=auto;html=1;exitX=0.5;exitY=1;exitDx=0;exitDy=0;" edge="1" parent="1" source="cMHefLGlaLbFDmGDl4aF-46" target="cMHefLGlaLbFDmGDl4aF-46">
          <mxGeometry relative="1" as="geometry" />
        </mxCell>
        <mxCell id="cMHefLGlaLbFDmGDl4aF-48" value="TotalPermiumAmt" style="ellipse;whiteSpace=wrap;html=1;" vertex="1" parent="1">
          <mxGeometry x="90" y="545" width="100" height="40" as="geometry" />
        </mxCell>
        <mxCell id="cMHefLGlaLbFDmGDl4aF-49" value="MaturityAmt" style="ellipse;whiteSpace=wrap;html=1;" vertex="1" parent="1">
          <mxGeometry x="75" y="600" width="90" height="40" as="geometry" />
        </mxCell>
        <mxCell id="cMHefLGlaLbFDmGDl4aF-50" value="NoOfYears" style="ellipse;whiteSpace=wrap;html=1;" vertex="1" parent="1">
          <mxGeometry x="145" y="660" width="80" height="40" as="geometry" />
        </mxCell>
        <mxCell id="cMHefLGlaLbFDmGDl4aF-51" value="PolicyStatus" style="ellipse;whiteSpace=wrap;html=1;" vertex="1" parent="1">
          <mxGeometry x="249" y="640" width="110" height="40" as="geometry" />
        </mxCell>
        <mxCell id="cMHefLGlaLbFDmGDl4aF-52" value="AnnuityTerms" style="ellipse;whiteSpace=wrap;html=1;" vertex="1" parent="1">
          <mxGeometry x="390" y="640" width="100" height="40" as="geometry" />
        </mxCell>
        <mxCell id="cMHefLGlaLbFDmGDl4aF-55" style="edgeStyle=orthogonalEdgeStyle;rounded=0;orthogonalLoop=1;jettySize=auto;html=1;exitX=0;exitY=0.75;exitDx=0;exitDy=0;entryX=0;entryY=1;entryDx=0;entryDy=0;" edge="1" parent="1" source="cMHefLGlaLbFDmGDl4aF-42" target="cMHefLGlaLbFDmGDl4aF-42">
          <mxGeometry relative="1" as="geometry" />
        </mxCell>
        <mxCell id="cMHefLGlaLbFDmGDl4aF-58" style="edgeStyle=orthogonalEdgeStyle;rounded=0;orthogonalLoop=1;jettySize=auto;html=1;exitX=0;exitY=1;exitDx=0;exitDy=0;entryX=0.588;entryY=-0.025;entryDx=0;entryDy=0;entryPerimeter=0;" edge="1" parent="1" source="cMHefLGlaLbFDmGDl4aF-42" target="cMHefLGlaLbFDmGDl4aF-50">
          <mxGeometry relative="1" as="geometry" />
        </mxCell>
        <mxCell id="cMHefLGlaLbFDmGDl4aF-61" value="CustomerID" style="ellipse;whiteSpace=wrap;html=1;" vertex="1" parent="1">
          <mxGeometry x="400" y="420" width="120" height="40" as="geometry" />
        </mxCell>
        <mxCell id="cMHefLGlaLbFDmGDl4aF-62" value="" style="endArrow=none;dashed=1;html=1;rounded=0;" edge="1" parent="1">
          <mxGeometry width="50" height="50" relative="1" as="geometry">
            <mxPoint x="430" y="444.5" as="sourcePoint" />
            <mxPoint x="490" y="444.5" as="targetPoint" />
          </mxGeometry>
        </mxCell>
        <mxCell id="cMHefLGlaLbFDmGDl4aF-66" style="edgeStyle=orthogonalEdgeStyle;rounded=0;orthogonalLoop=1;jettySize=auto;html=1;exitX=0;exitY=0.5;exitDx=0;exitDy=0;entryX=1;entryY=0.5;entryDx=0;entryDy=0;" edge="1" parent="1" source="cMHefLGlaLbFDmGDl4aF-65" target="cMHefLGlaLbFDmGDl4aF-42">
          <mxGeometry relative="1" as="geometry" />
        </mxCell>
        <mxCell id="cMHefLGlaLbFDmGDl4aF-84" style="edgeStyle=orthogonalEdgeStyle;rounded=0;orthogonalLoop=1;jettySize=auto;html=1;exitX=0.5;exitY=1;exitDx=0;exitDy=0;" edge="1" parent="1" source="cMHefLGlaLbFDmGDl4aF-65">
          <mxGeometry relative="1" as="geometry">
            <mxPoint x="720" y="800" as="targetPoint" />
          </mxGeometry>
        </mxCell>
        <mxCell id="cMHefLGlaLbFDmGDl4aF-65" value="Admin" style="rhombus;whiteSpace=wrap;html=1;" vertex="1" parent="1">
          <mxGeometry x="620" y="490" width="80" height="80" as="geometry" />
        </mxCell>
        <mxCell id="cMHefLGlaLbFDmGDl4aF-71" style="edgeStyle=orthogonalEdgeStyle;rounded=0;orthogonalLoop=1;jettySize=auto;html=1;exitX=0.5;exitY=1;exitDx=0;exitDy=0;entryX=0.5;entryY=0;entryDx=0;entryDy=0;" edge="1" parent="1" source="cMHefLGlaLbFDmGDl4aF-67" target="cMHefLGlaLbFDmGDl4aF-68">
          <mxGeometry relative="1" as="geometry" />
        </mxCell>
        <mxCell id="cMHefLGlaLbFDmGDl4aF-72" style="edgeStyle=orthogonalEdgeStyle;rounded=0;orthogonalLoop=1;jettySize=auto;html=1;exitX=0.5;exitY=1;exitDx=0;exitDy=0;entryX=0.5;entryY=0;entryDx=0;entryDy=0;" edge="1" parent="1" source="cMHefLGlaLbFDmGDl4aF-67" target="cMHefLGlaLbFDmGDl4aF-69">
          <mxGeometry relative="1" as="geometry" />
        </mxCell>
        <mxCell id="cMHefLGlaLbFDmGDl4aF-73" style="edgeStyle=orthogonalEdgeStyle;rounded=0;orthogonalLoop=1;jettySize=auto;html=1;exitX=0.5;exitY=1;exitDx=0;exitDy=0;entryX=0.5;entryY=0;entryDx=0;entryDy=0;" edge="1" parent="1" source="cMHefLGlaLbFDmGDl4aF-67" target="cMHefLGlaLbFDmGDl4aF-70">
          <mxGeometry relative="1" as="geometry" />
        </mxCell>
        <mxCell id="cMHefLGlaLbFDmGDl4aF-67" value="" style="ellipse;whiteSpace=wrap;html=1;fillColor=none;" vertex="1" parent="1">
          <mxGeometry x="242.63" y="632.5" width="122.75" height="55" as="geometry" />
        </mxCell>
        <mxCell id="cMHefLGlaLbFDmGDl4aF-68" value="Active" style="ellipse;whiteSpace=wrap;html=1;" vertex="1" parent="1">
          <mxGeometry x="150" y="760" width="110" height="40" as="geometry" />
        </mxCell>
        <mxCell id="cMHefLGlaLbFDmGDl4aF-69" value="Inactive" style="ellipse;whiteSpace=wrap;html=1;" vertex="1" parent="1">
          <mxGeometry x="260" y="800" width="90" height="40" as="geometry" />
        </mxCell>
        <mxCell id="cMHefLGlaLbFDmGDl4aF-70" value="Closed" style="ellipse;whiteSpace=wrap;html=1;" vertex="1" parent="1">
          <mxGeometry x="360" y="760" width="90" height="30" as="geometry" />
        </mxCell>
        <mxCell id="cMHefLGlaLbFDmGDl4aF-81" style="edgeStyle=orthogonalEdgeStyle;rounded=0;orthogonalLoop=1;jettySize=auto;html=1;exitX=1;exitY=0.5;exitDx=0;exitDy=0;entryX=0;entryY=0;entryDx=0;entryDy=0;" edge="1" parent="1" source="cMHefLGlaLbFDmGDl4aF-74" target="cMHefLGlaLbFDmGDl4aF-78">
          <mxGeometry relative="1" as="geometry" />
        </mxCell>
        <mxCell id="cMHefLGlaLbFDmGDl4aF-82" style="edgeStyle=orthogonalEdgeStyle;rounded=0;orthogonalLoop=1;jettySize=auto;html=1;exitX=0.5;exitY=1;exitDx=0;exitDy=0;entryX=0;entryY=0;entryDx=0;entryDy=0;" edge="1" parent="1" source="cMHefLGlaLbFDmGDl4aF-74" target="cMHefLGlaLbFDmGDl4aF-77">
          <mxGeometry relative="1" as="geometry" />
        </mxCell>
        <mxCell id="cMHefLGlaLbFDmGDl4aF-74" value="" style="ellipse;whiteSpace=wrap;html=1;fillColor=none;" vertex="1" parent="1">
          <mxGeometry x="385" y="638.75" width="110" height="42.5" as="geometry" />
        </mxCell>
        <mxCell id="cMHefLGlaLbFDmGDl4aF-75" value="Quarterly" style="ellipse;whiteSpace=wrap;html=1;" vertex="1" parent="1">
          <mxGeometry x="450" y="570" width="90" height="30" as="geometry" />
        </mxCell>
        <mxCell id="cMHefLGlaLbFDmGDl4aF-76" value="Half-yearly" style="ellipse;whiteSpace=wrap;html=1;" vertex="1" parent="1">
          <mxGeometry x="510" y="610" width="90" height="40" as="geometry" />
        </mxCell>
        <mxCell id="cMHefLGlaLbFDmGDl4aF-77" value="One-time" style="ellipse;whiteSpace=wrap;html=1;" vertex="1" parent="1">
          <mxGeometry x="435" y="720" width="85" height="30" as="geometry" />
        </mxCell>
        <mxCell id="cMHefLGlaLbFDmGDl4aF-78" value="Annually" style="ellipse;whiteSpace=wrap;html=1;" vertex="1" parent="1">
          <mxGeometry x="510" y="680" width="80" height="30" as="geometry" />
        </mxCell>
        <mxCell id="cMHefLGlaLbFDmGDl4aF-79" style="edgeStyle=orthogonalEdgeStyle;rounded=0;orthogonalLoop=1;jettySize=auto;html=1;exitX=0.5;exitY=0;exitDx=0;exitDy=0;entryX=0.222;entryY=1;entryDx=0;entryDy=0;entryPerimeter=0;" edge="1" parent="1" source="cMHefLGlaLbFDmGDl4aF-74" target="cMHefLGlaLbFDmGDl4aF-75">
          <mxGeometry relative="1" as="geometry" />
        </mxCell>
        <mxCell id="cMHefLGlaLbFDmGDl4aF-80" style="edgeStyle=orthogonalEdgeStyle;rounded=0;orthogonalLoop=1;jettySize=auto;html=1;exitX=1;exitY=0;exitDx=0;exitDy=0;entryX=0.078;entryY=0.675;entryDx=0;entryDy=0;entryPerimeter=0;" edge="1" parent="1" source="cMHefLGlaLbFDmGDl4aF-74" target="cMHefLGlaLbFDmGDl4aF-76">
          <mxGeometry relative="1" as="geometry" />
        </mxCell>
        <mxCell id="cMHefLGlaLbFDmGDl4aF-88" style="edgeStyle=orthogonalEdgeStyle;rounded=0;orthogonalLoop=1;jettySize=auto;html=1;exitX=0;exitY=0.5;exitDx=0;exitDy=0;entryX=1;entryY=0.5;entryDx=0;entryDy=0;" edge="1" parent="1" source="cMHefLGlaLbFDmGDl4aF-85" target="cMHefLGlaLbFDmGDl4aF-86">
          <mxGeometry relative="1" as="geometry" />
        </mxCell>
        <mxCell id="cMHefLGlaLbFDmGDl4aF-95" style="edgeStyle=orthogonalEdgeStyle;rounded=0;orthogonalLoop=1;jettySize=auto;html=1;exitX=0;exitY=1;exitDx=0;exitDy=0;entryX=1;entryY=0.5;entryDx=0;entryDy=0;" edge="1" parent="1" source="cMHefLGlaLbFDmGDl4aF-85" target="cMHefLGlaLbFDmGDl4aF-93">
          <mxGeometry relative="1" as="geometry" />
        </mxCell>
        <mxCell id="cMHefLGlaLbFDmGDl4aF-96" style="edgeStyle=orthogonalEdgeStyle;rounded=0;orthogonalLoop=1;jettySize=auto;html=1;exitX=0.25;exitY=1;exitDx=0;exitDy=0;" edge="1" parent="1" source="cMHefLGlaLbFDmGDl4aF-85" target="cMHefLGlaLbFDmGDl4aF-90">
          <mxGeometry relative="1" as="geometry" />
        </mxCell>
        <mxCell id="cMHefLGlaLbFDmGDl4aF-97" style="edgeStyle=orthogonalEdgeStyle;rounded=0;orthogonalLoop=1;jettySize=auto;html=1;exitX=0.5;exitY=1;exitDx=0;exitDy=0;entryX=0.5;entryY=0;entryDx=0;entryDy=0;" edge="1" parent="1" source="cMHefLGlaLbFDmGDl4aF-85" target="cMHefLGlaLbFDmGDl4aF-92">
          <mxGeometry relative="1" as="geometry" />
        </mxCell>
        <mxCell id="cMHefLGlaLbFDmGDl4aF-98" style="edgeStyle=orthogonalEdgeStyle;rounded=0;orthogonalLoop=1;jettySize=auto;html=1;exitX=1;exitY=0.5;exitDx=0;exitDy=0;entryX=0.5;entryY=0;entryDx=0;entryDy=0;" edge="1" parent="1" source="cMHefLGlaLbFDmGDl4aF-85" target="cMHefLGlaLbFDmGDl4aF-89">
          <mxGeometry relative="1" as="geometry" />
        </mxCell>
        <mxCell id="cMHefLGlaLbFDmGDl4aF-85" value="Claim" style="rounded=0;whiteSpace=wrap;html=1;" vertex="1" parent="1">
          <mxGeometry x="660" y="800" width="120" height="60" as="geometry" />
        </mxCell>
        <mxCell id="cMHefLGlaLbFDmGDl4aF-86" value="ClaimID" style="ellipse;whiteSpace=wrap;html=1;" vertex="1" parent="1">
          <mxGeometry x="490" y="800" width="110" height="40" as="geometry" />
        </mxCell>
        <mxCell id="cMHefLGlaLbFDmGDl4aF-87" value="" style="endArrow=none;html=1;rounded=0;" edge="1" parent="1">
          <mxGeometry width="50" height="50" relative="1" as="geometry">
            <mxPoint x="510" y="829.5" as="sourcePoint" />
            <mxPoint x="580" y="829.5" as="targetPoint" />
          </mxGeometry>
        </mxCell>
        <mxCell id="cMHefLGlaLbFDmGDl4aF-89" value="Date" style="ellipse;whiteSpace=wrap;html=1;" vertex="1" parent="1">
          <mxGeometry x="870" y="840" width="100" height="40" as="geometry" />
        </mxCell>
        <mxCell id="cMHefLGlaLbFDmGDl4aF-90" value="Description" style="ellipse;whiteSpace=wrap;html=1;" vertex="1" parent="1">
          <mxGeometry x="530" y="960" width="104" height="40" as="geometry" />
        </mxCell>
        <mxCell id="cMHefLGlaLbFDmGDl4aF-91" value="Amount" style="ellipse;whiteSpace=wrap;html=1;" vertex="1" parent="1">
          <mxGeometry x="800" y="740" width="120" height="40" as="geometry" />
        </mxCell>
        <mxCell id="cMHefLGlaLbFDmGDl4aF-92" value="Status" style="ellipse;whiteSpace=wrap;html=1;" vertex="1" parent="1">
          <mxGeometry x="727" y="920" width="100" height="40" as="geometry" />
        </mxCell>
        <mxCell id="cMHefLGlaLbFDmGDl4aF-100" style="edgeStyle=orthogonalEdgeStyle;rounded=0;orthogonalLoop=1;jettySize=auto;html=1;exitX=0.5;exitY=0;exitDx=0;exitDy=0;" edge="1" parent="1" source="cMHefLGlaLbFDmGDl4aF-93" target="cMHefLGlaLbFDmGDl4aF-42">
          <mxGeometry relative="1" as="geometry">
            <Array as="points">
              <mxPoint x="359" y="900" />
            </Array>
          </mxGeometry>
        </mxCell>
        <mxCell id="cMHefLGlaLbFDmGDl4aF-93" value="PolicyID" style="ellipse;whiteSpace=wrap;html=1;" vertex="1" parent="1">
          <mxGeometry x="330" y="900" width="80" height="40" as="geometry" />
        </mxCell>
        <mxCell id="cMHefLGlaLbFDmGDl4aF-94" value="" style="endArrow=none;dashed=1;html=1;rounded=0;" edge="1" parent="1">
          <mxGeometry width="50" height="50" relative="1" as="geometry">
            <mxPoint x="340" y="930" as="sourcePoint" />
            <mxPoint x="400" y="930" as="targetPoint" />
          </mxGeometry>
        </mxCell>
        <mxCell id="cMHefLGlaLbFDmGDl4aF-99" style="edgeStyle=orthogonalEdgeStyle;rounded=0;orthogonalLoop=1;jettySize=auto;html=1;exitX=0.75;exitY=0;exitDx=0;exitDy=0;entryX=-0.017;entryY=0.35;entryDx=0;entryDy=0;entryPerimeter=0;" edge="1" parent="1" source="cMHefLGlaLbFDmGDl4aF-85" target="cMHefLGlaLbFDmGDl4aF-91">
          <mxGeometry relative="1" as="geometry" />
        </mxCell>
        <mxCell id="cMHefLGlaLbFDmGDl4aF-105" style="edgeStyle=orthogonalEdgeStyle;rounded=0;orthogonalLoop=1;jettySize=auto;html=1;exitX=1;exitY=0.5;exitDx=0;exitDy=0;entryX=0;entryY=0.5;entryDx=0;entryDy=0;" edge="1" parent="1" source="cMHefLGlaLbFDmGDl4aF-101" target="cMHefLGlaLbFDmGDl4aF-102">
          <mxGeometry relative="1" as="geometry" />
        </mxCell>
        <mxCell id="cMHefLGlaLbFDmGDl4aF-106" style="edgeStyle=orthogonalEdgeStyle;rounded=0;orthogonalLoop=1;jettySize=auto;html=1;exitX=1;exitY=1;exitDx=0;exitDy=0;entryX=0;entryY=0;entryDx=0;entryDy=0;" edge="1" parent="1" source="cMHefLGlaLbFDmGDl4aF-101" target="cMHefLGlaLbFDmGDl4aF-104">
          <mxGeometry relative="1" as="geometry" />
        </mxCell>
        <mxCell id="cMHefLGlaLbFDmGDl4aF-101" value="" style="ellipse;whiteSpace=wrap;html=1;fillColor=none;" vertex="1" parent="1">
          <mxGeometry x="710" y="910" width="130" height="60" as="geometry" />
        </mxCell>
        <mxCell id="cMHefLGlaLbFDmGDl4aF-102" value="Paid" style="ellipse;whiteSpace=wrap;html=1;" vertex="1" parent="1">
          <mxGeometry x="910" y="910" width="110" height="40" as="geometry" />
        </mxCell>
        <mxCell id="cMHefLGlaLbFDmGDl4aF-103" value="Pendind" style="ellipse;whiteSpace=wrap;html=1;" vertex="1" parent="1">
          <mxGeometry x="740" y="1010" width="100" height="40" as="geometry" />
        </mxCell>
        <mxCell id="cMHefLGlaLbFDmGDl4aF-104" value="Rejected" style="ellipse;whiteSpace=wrap;html=1;" vertex="1" parent="1">
          <mxGeometry x="860" y="1000" width="120" height="40" as="geometry" />
        </mxCell>
        <mxCell id="cMHefLGlaLbFDmGDl4aF-107" style="edgeStyle=orthogonalEdgeStyle;rounded=0;orthogonalLoop=1;jettySize=auto;html=1;exitX=0.5;exitY=1;exitDx=0;exitDy=0;entryX=0.4;entryY=0.075;entryDx=0;entryDy=0;entryPerimeter=0;" edge="1" parent="1" source="cMHefLGlaLbFDmGDl4aF-101" target="cMHefLGlaLbFDmGDl4aF-103">
          <mxGeometry relative="1" as="geometry" />
        </mxCell>
      </root>
    </mxGraphModel>
  </diagram>
</mxfile>
